<svg width="14" height="14" viewBox="0 0 14 14" fill="none" xmlns="http://www.w3.org/2000/svg">
<path d="M9.93795 0H4.06903C1.51976 0 0 1.519 0 4.067V9.926C0 12.481 1.51976 14 4.06903 14H9.93095C12.4802 14 14 12.481 14 9.933V4.067C14.007 1.519 12.4872 0 9.93795 0ZM2.27613 6.923C2.29714 5.691 2.78739 4.529 3.65582 3.661C4.55227 2.765 5.74286 2.275 7.00349 2.275C8.26412 2.275 9.45471 2.765 10.3442 3.661C10.3652 3.682 10.3862 3.71 10.4072 3.738V3.136C10.4072 2.849 10.6453 2.611 10.9324 2.611C11.2196 2.611 11.4577 2.849 11.4577 3.136V4.991C11.4577 5.278 11.2196 5.516 10.9324 5.516H9.07652C8.78938 5.516 8.55126 5.278 8.55126 4.991C8.55126 4.704 8.78938 4.466 9.07652 4.466H9.65781C9.6368 4.445 9.6228 4.424 9.60179 4.403C8.90844 3.71 7.98398 3.325 7.00349 3.325C6.023 3.325 5.09854 3.71 4.4052 4.403C3.72586 5.082 3.34767 5.985 3.33366 6.944C3.32666 7.224 3.08854 7.455 2.8014 7.455H2.79439C2.50725 7.455 2.27613 7.21 2.27613 6.923ZM10.3442 10.339C9.45471 11.228 8.26412 11.725 7.00349 11.725C5.74286 11.725 4.55227 11.235 3.66283 10.339C3.64181 10.318 3.6208 10.29 3.59979 10.262V10.857C3.59979 11.144 3.36168 11.382 3.07453 11.382C2.78739 11.382 2.54927 11.144 2.54927 10.857V9.002C2.54927 8.715 2.78739 8.477 3.07453 8.477H4.93046C5.2176 8.477 5.45572 8.715 5.45572 9.002C5.45572 9.289 5.2176 9.527 4.93046 9.527H4.34917C4.37018 9.548 4.38418 9.569 4.4052 9.59C5.09854 10.283 6.023 10.668 7.00349 10.668C7.98398 10.668 8.90844 10.283 9.60179 9.59C10.2881 8.904 10.6733 7.987 10.6733 7.007C10.6733 6.72 10.9114 6.482 11.1986 6.482C11.4857 6.482 11.7238 6.72 11.7238 7.007C11.7238 8.274 11.2336 9.457 10.3442 10.339Z" fill="#898989"/>
</svg>
