<svg width="15" height="22" viewBox="0 0 15 22" fill="none" xmlns="http://www.w3.org/2000/svg">
<g clip-path="url(#clip0_13_29)">
<path d="M7.04065 21.8791V16.4202L0.200867 12.4712L7.04065 21.8791Z" fill="#F0CDC2"/>
<path fill-rule="evenodd" clip-rule="evenodd" d="M0.155605 12.4305C0.175066 12.4094 0.20682 12.4046 0.231769 12.419L7.07156 16.368C7.09033 16.3789 7.10187 16.3987 7.10187 16.4202V21.8791C7.10187 21.9054 7.08471 21.9286 7.05941 21.9366C7.0341 21.9447 7.00643 21.9357 6.99092 21.9144L0.151134 12.5065C0.134281 12.4833 0.136145 12.4516 0.155605 12.4305ZM0.41846 12.6669L6.97944 21.6913V16.4549L0.41846 12.6669Z" fill="#1616B4"/>
<path d="M7.06335 21.8791V16.4202L13.9031 12.4712L7.06335 21.8791Z" fill="#C9B3F5"/>
<path fill-rule="evenodd" clip-rule="evenodd" d="M13.9484 12.4305C13.9678 12.4516 13.9697 12.4833 13.9528 12.5065L7.11309 21.9144C7.09758 21.9357 7.06991 21.9447 7.0446 21.9366C7.0193 21.9286 7.00214 21.9054 7.00214 21.8791V16.4202C7.00214 16.3987 7.01368 16.3789 7.03245 16.368L13.8722 12.419C13.8971 12.4046 13.9289 12.4094 13.9484 12.4305ZM7.12457 16.4549V21.6913L13.6855 12.6669L7.12457 16.4549Z" fill="#1616B4"/>
<path d="M7.04068 15.0634V8.09631L0.122437 11.1549L7.04068 15.0634Z" fill="#88AAF1"/>
<path fill-rule="evenodd" clip-rule="evenodd" d="M7.07396 8.0456C7.09138 8.05675 7.10189 8.07584 7.10189 8.09633V15.0634C7.10189 15.0849 7.09027 15.1048 7.07139 15.1156C7.0525 15.1265 7.02922 15.1265 7.01027 15.1158L0.0920317 11.2073C0.0720351 11.196 0.0601562 11.1746 0.0612932 11.1519C0.0624301 11.1292 0.0763902 11.109 0.0974173 11.0997L7.01566 8.04117C7.0346 8.03279 7.05655 8.03446 7.07396 8.0456ZM0.257342 11.1615L6.97946 14.9591V8.18961L0.257342 11.1615Z" fill="#1616B4"/>
<path d="M7.06329 15.0634V8.09631L13.9816 11.1549L7.06329 15.0634Z" fill="#C9B3F5"/>
<path fill-rule="evenodd" clip-rule="evenodd" d="M7.03001 8.0456C7.04742 8.03446 7.06937 8.03279 7.08831 8.04117L14.0066 11.0997C14.0276 11.109 14.0416 11.1292 14.0427 11.1519C14.0438 11.1746 14.032 11.196 14.012 11.2073L7.0937 15.1158C7.07475 15.1265 7.05146 15.1265 7.03258 15.1156C7.0137 15.1048 7.00208 15.0849 7.00208 15.0634V8.09633C7.00208 8.07584 7.01259 8.05675 7.03001 8.0456ZM7.12451 8.18961V14.9591L13.8466 11.1615L7.12451 8.18961Z" fill="#1616B4"/>
<path d="M0.122437 11.1548L7.04066 0.12085V8.09629L0.122437 11.1548Z" fill="#F0CDC2"/>
<path fill-rule="evenodd" clip-rule="evenodd" d="M7.0574 0.0627363C7.08372 0.0701268 7.10187 0.0938586 7.10187 0.120869V8.09631C7.10187 8.12013 7.0877 8.14173 7.06567 8.15147L0.147455 11.21C0.122911 11.2209 0.0940695 11.2146 0.0763626 11.1946C0.0586556 11.1747 0.0562304 11.1456 0.0703847 11.123L6.9886 0.0890577C7.003 0.066091 7.03109 0.0553458 7.0574 0.0627363ZM0.279488 11.0192L6.97944 8.05715V0.333336L0.279488 11.0192Z" fill="#1616B4"/>
<path d="M13.9816 11.1548L7.06335 0.12085V8.09629L13.9816 11.1548Z" fill="#B8FAF6"/>
<path fill-rule="evenodd" clip-rule="evenodd" d="M7.0466 0.0627363C7.07292 0.0553458 7.10101 0.066091 7.11541 0.0890576L14.0336 11.123C14.0478 11.1456 14.0454 11.1747 14.0277 11.1946C14.0099 11.2146 13.9811 11.2209 13.9566 11.21L7.03833 8.15147C7.01631 8.14173 7.00214 8.12013 7.00214 8.09631V0.120869C7.00214 0.0938586 7.02029 0.0701268 7.0466 0.0627363ZM7.12457 0.333336V8.05715L13.8245 11.0192L7.12457 0.333336Z" fill="#1616B4"/>
</g>
<defs>
<clipPath id="clip0_13_29">
<rect width="14.08" height="22" rx="4" fill="white"/>
</clipPath>
</defs>
</svg>
