<svg width="131" height="128" viewBox="0 0 131 128" fill="none" xmlns="http://www.w3.org/2000/svg">
<rect x="0.5" y="14.5" width="112.78" height="112.78" rx="56.39" fill="#131313"/>
<rect x="0.5" y="14.5" width="112.78" height="112.78" rx="56.39" stroke="black"/>
<g clip-path="url(#clip0_335_3248)">
<path fill-rule="evenodd" clip-rule="evenodd" d="M113.778 70.8889C113.778 39.4701 88.3077 14 56.8889 14C25.4701 14 0 39.4701 0 70.8889C0 102.308 25.4701 127.778 56.8889 127.778C88.3077 127.778 113.778 102.308 113.778 70.8889ZM34.1976 82.2681C34.8034 82.9361 35.4041 83.6424 36.0019 84.378C37.6718 86.4321 39.3323 88.7387 41.0643 91.1565C41.54 91.824 41.4492 92.7515 40.7993 93.251C40.5753 93.4233 40.4276 93.5262 40.3904 93.5518L40.3717 93.5643C38.2369 94.9761 35.9891 96.0622 33.568 96.6681C32.1754 97.0172 30.7311 97.2069 29.225 97.2095C27.6433 97.2121 26.7622 95.5211 27.3624 94.0576C28.1242 92.1995 28.7787 90.2989 29.3208 88.3614C29.7614 86.7874 30.1265 85.196 30.4152 83.5893C30.7499 81.7265 32.9259 80.8662 34.1976 82.2681ZM40.0583 49.6295C40.7552 50.0123 41.4414 50.4276 42.1182 50.8721C43.4036 51.7188 44.6592 52.6657 45.8897 53.6902C45.9285 53.7189 45.9669 53.7492 46.0049 53.781C47.1386 54.731 48.2506 55.7474 49.3438 56.8122C51.2168 58.6362 53.0501 60.5911 54.8914 62.5843L54.9224 62.6187C55.2875 63.0138 55.6525 63.4101 56.0185 63.8076L56.416 64.2391C57.6906 65.6165 58.9758 66.9996 60.2894 68.3592C60.3278 68.3946 60.3655 68.4313 60.4027 68.4695C61.5687 69.6738 62.7572 70.8593 63.9806 72.0053C65.9899 73.8869 68.4625 75.6984 70.935 77.3121C70.972 77.3363 71.008 77.3612 71.0431 77.3868C71.5572 77.7208 72.0709 78.0462 72.5803 78.362C73.2006 78.7467 73.618 79.389 73.7041 80.1139C74.2128 84.3991 74.7255 88.7112 76.3136 93.1775C77.5562 96.6743 79.1194 100.275 81.0216 104.004C81.7503 105.432 80.9408 107.029 79.6212 107.385C79.237 107.49 78.8094 107.49 78.3637 107.35C74.5282 106.141 71.1396 104.684 68.1055 103.054C64.8076 101.279 61.892 99.2791 59.2678 97.146C59.2386 97.1225 59.2102 97.0983 59.1827 97.0734C58.5583 96.5638 57.9508 96.0468 57.3585 95.5234C54.378 92.8857 51.7288 90.0697 49.3388 87.2421C47.1687 84.6721 45.1757 82.0839 43.2702 79.6092L42.894 79.1205C40.9301 76.5801 39.0497 74.1669 37.1646 72.0433C35.6068 70.2908 33.7534 68.7271 32.0623 67.467C31.5074 67.0534 31.1443 66.429 31.0824 65.7395C30.9265 64.0077 30.7672 62.2807 30.5086 60.57C30.3073 59.2392 30.0461 57.9187 29.6799 56.6131C29.6401 56.4716 29.5998 56.3298 29.559 56.1886C29.4843 55.9297 29.4078 55.6716 29.3295 55.4139C28.7671 53.5627 28.1133 51.7446 27.3709 49.9637C26.8205 48.6434 27.4875 47.1349 28.7898 46.8393C28.9278 46.8081 29.0726 46.7903 29.2241 46.7879C31.0286 46.7588 32.7585 46.9695 34.4273 47.3843C36.3842 47.8716 38.2471 48.6368 40.0386 49.6186L40.0583 49.6295ZM72.124 61.0962C71.7279 61.1028 71.3221 60.9985 70.9435 60.7598C69.0942 59.5946 67.3529 58.2814 65.6908 56.8961C63.2522 54.8628 60.9572 52.6441 58.6923 50.435C58.1056 49.8639 58.0762 48.9255 58.6532 48.3445C59.1652 47.8292 59.515 47.513 59.5641 47.4692L59.5767 47.458C62.4559 44.9312 65.7098 42.5713 69.505 40.537C72.1572 39.116 75.0943 37.844 78.3858 36.7767C78.6188 36.701 78.8466 36.6643 79.0661 36.6612C80.7038 36.6318 81.8702 38.4762 81.0491 40.1063C79.4299 43.3205 78.0871 46.4354 77.0084 49.4669C75.8462 52.7347 74.9777 55.9368 74.3969 59.0885C74.1796 60.2668 73.1857 61.0812 72.124 61.0962Z" fill="url(#paint0_linear_335_3248)"/>
<g style="mix-blend-mode:plus-lighter" filter="url(#filter0_f_335_3248)">
<path d="M87 85.7778C95.2843 85.7778 102 79.0621 102 70.7778C102 62.4936 95.2843 55.7778 87 55.7778C78.7157 55.7778 72 62.4936 72 70.7778C72 79.0621 78.7157 85.7778 87 85.7778Z" fill="white"/>
</g>
</g>
<defs>
<filter id="filter0_f_335_3248" x="40" y="23.7778" width="94" height="94" filterUnits="userSpaceOnUse" color-interpolation-filters="sRGB">
<feFlood flood-opacity="0" result="BackgroundImageFix"/>
<feBlend mode="normal" in="SourceGraphic" in2="BackgroundImageFix" result="shape"/>
<feGaussianBlur stdDeviation="16" result="effect1_foregroundBlur_335_3248"/>
</filter>
<linearGradient id="paint0_linear_335_3248" x1="10.1193" y1="33.2322" x2="89.3843" y2="129.234" gradientUnits="userSpaceOnUse">
<stop stop-color="#8322FF"/>
<stop offset="0.43" stop-color="#3BCEFD"/>
<stop offset="1" stop-color="#FF6BF9"/>
</linearGradient>
<clipPath id="clip0_335_3248">
<rect width="130.37" height="128" fill="white"/>
</clipPath>
</defs>
</svg>
