<svg width="12" height="12" viewBox="0 0 12 12" fill="none" xmlns="http://www.w3.org/2000/svg">
<path d="M9.26999 2.05998L6.51999 1.02998C6.23499 0.924983 5.76999 0.924983 5.48499 1.02998L2.73499 2.05998C2.20499 2.25998 1.77499 2.87998 1.77499 3.44498V7.49498C1.77499 7.89998 2.03999 8.43498 2.36499 8.67498L5.11499 10.73C5.59999 11.095 6.39499 11.095 6.87999 10.73L9.62999 8.67498C9.95499 8.42998 10.22 7.89998 10.22 7.49498V3.44498C10.225 2.87998 9.79499 2.25998 9.26999 2.05998ZM7.73999 4.85998L5.58999 7.00998C5.51499 7.08498 5.41999 7.11998 5.32499 7.11998C5.22999 7.11998 5.13499 7.08498 5.05999 7.00998L4.25999 6.19998C4.11499 6.05498 4.11499 5.81498 4.25999 5.66998C4.40499 5.52498 4.64499 5.52498 4.78999 5.66998L5.32999 6.20998L7.21499 4.32498C7.35999 4.17998 7.59999 4.17998 7.74499 4.32498C7.88999 4.46998 7.88999 4.71498 7.73999 4.85998Z" fill="#A4FF95"/>
</svg>
